<svg viewBox="0 0 200 200" xmlns="http://www.w3.org/2000/svg">
  <path fill="#FF0066" d="M46.6,-79.8C60.4,-72.8,71.6,-60.3,79.4,-46.1C87.2,-31.9,91.8,-15.9,91.1,-0.4C90.4,15.1,84.5,30.3,76.4,44.1C68.4,57.9,58.1,70.4,45,79.4C31.9,88.5,16,94.1,0.1,94C-15.8,93.9,-31.7,88.1,-44.6,78.9C-57.4,69.7,-67.3,57.2,-75.4,43.4C-83.5,29.7,-89.8,14.9,-91.3,-0.8C-92.8,-16.6,-89.4,-33.1,-81,-46.3C-72.6,-59.6,-59.2,-69.5,-44.9,-76.2C-30.6,-82.9,-15.3,-86.4,0.6,-87.4C16.4,-88.4,32.8,-86.8,46.6,-79.8Z" transform="translate(100 100)" />
</svg>
